<mxfile host="65bd71144e">
    <diagram id="9cIuG0kTdrUUHNoX7LT5" name="第 1 页">
        <mxGraphModel dx="895" dy="860" grid="1" gridSize="10" guides="1" tooltips="1" connect="1" arrows="1" fold="1" page="1" pageScale="1" pageWidth="10000" pageHeight="5000" math="0" shadow="0">
            <root>
                <mxCell id="0"/>
                <mxCell id="1" parent="0"/>
                <mxCell id="3" value="本地Web应用" style="html=1;strokeColor=none;fillColor=#0079D6;labelPosition=center;verticalLabelPosition=middle;verticalAlign=top;align=center;fontSize=12;outlineConnect=0;spacingTop=-6;fontColor=#FFFFFF;sketch=0;shape=mxgraph.sitemap.form;" vertex="1" parent="1">
                    <mxGeometry x="90" y="370" width="120" height="70" as="geometry"/>
                </mxCell>
                <mxCell id="5" value="mock-plugin" style="shape=ellipse;html=1;dashed=0;whitespace=wrap;aspect=fixed;perimeter=ellipsePerimeter;" vertex="1" parent="1">
                    <mxGeometry x="270" y="360" width="90" height="90" as="geometry"/>
                </mxCell>
                <mxCell id="6" value="" style="fontColor=#0066CC;verticalAlign=top;verticalLabelPosition=bottom;labelPosition=center;align=center;html=1;outlineConnect=0;fillColor=#CCCCCC;strokeColor=#6881B3;gradientColor=none;gradientDirection=north;strokeWidth=2;shape=mxgraph.networks.proxy_server;" vertex="1" parent="1">
                    <mxGeometry x="425" y="360" width="105" height="105" as="geometry"/>
                </mxCell>
                <mxCell id="7" value="正式的后台服务" style="text;html=1;align=center;verticalAlign=middle;resizable=0;points=[];autosize=1;strokeColor=none;fillColor=none;fontSize=14;" vertex="1" parent="1">
                    <mxGeometry x="420" y="330" width="110" height="20" as="geometry"/>
                </mxCell>
                <mxCell id="10" value="" style="endArrow=classic;startArrow=classic;html=1;fontSize=14;" edge="1" parent="1">
                    <mxGeometry width="50" height="50" relative="1" as="geometry">
                        <mxPoint x="220" y="404.5" as="sourcePoint"/>
                        <mxPoint x="260" y="404.5" as="targetPoint"/>
                    </mxGeometry>
                </mxCell>
                <mxCell id="11" value="" style="endArrow=classic;startArrow=classic;html=1;fontSize=14;" edge="1" parent="1">
                    <mxGeometry width="50" height="50" relative="1" as="geometry">
                        <mxPoint x="370" y="404.5" as="sourcePoint"/>
                        <mxPoint x="410" y="404.5" as="targetPoint"/>
                    </mxGeometry>
                </mxCell>
                <mxCell id="12" value="正式环境Web应用" style="html=1;strokeColor=none;fillColor=#0079D6;labelPosition=center;verticalLabelPosition=middle;verticalAlign=top;align=center;fontSize=12;outlineConnect=0;spacingTop=-6;fontColor=#FFFFFF;sketch=0;shape=mxgraph.sitemap.form;" vertex="1" parent="1">
                    <mxGeometry x="410" y="200" width="120" height="70" as="geometry"/>
                </mxCell>
                <mxCell id="13" value="" style="endArrow=classic;startArrow=classic;html=1;fontSize=14;" edge="1" parent="1">
                    <mxGeometry width="50" height="50" relative="1" as="geometry">
                        <mxPoint x="467" y="280" as="sourcePoint"/>
                        <mxPoint x="467" y="320" as="targetPoint"/>
                    </mxGeometry>
                </mxCell>
                <mxCell id="15" style="edgeStyle=none;html=1;fontSize=14;dashed=1;" edge="1" parent="1" source="14">
                    <mxGeometry relative="1" as="geometry">
                        <mxPoint x="400" y="235" as="targetPoint"/>
                    </mxGeometry>
                </mxCell>
                <mxCell id="16" style="edgeStyle=none;html=1;fontSize=14;" edge="1" parent="1" source="14">
                    <mxGeometry relative="1" as="geometry">
                        <mxPoint x="150" y="360" as="targetPoint"/>
                    </mxGeometry>
                </mxCell>
                <mxCell id="14" value="" style="shape=image;verticalLabelPosition=bottom;labelBackgroundColor=#ffffff;verticalAlign=top;aspect=fixed;imageAspect=0;image=data:image/svg+xml,PHN2ZyB4bWxucz0iaHR0cDovL3d3dy53My5vcmcvMjAwMC9zdmciIHdpZHRoPSI0MDAiIGhlaWdodD0iNDAwIiB2aWV3Qm94PSIwIDAgNDAwIDQwMCIgZmlsbD0ibm9uZSI+CjxwYXRoIGQ9Ik0xMzYuNDQ0IDIyMS41NTZDMTIzLjU1OCAyMjUuMjEzIDExNS4xMDQgMjMxLjYyNSAxMDkuNTM1IDIzOC4wMzJDMTE0Ljg2OSAyMzMuMzY0IDEyMi4wMTQgMjI5LjA4IDEzMS42NTIgMjI2LjM0OEMxNDEuNTEgMjIzLjU1NCAxNDkuOTIgMjIzLjU3NCAxNTYuODY5IDIyNC45MTVWMjE5LjQ4MUMxNTAuOTQxIDIxOC45MzkgMTQ0LjE0NSAyMTkuMzcxIDEzNi40NDQgMjIxLjU1NlpNMTA4Ljk0NiAxNzUuODc2TDYxLjA4OTUgMTg4LjQ4NEM2MS4wODk1IDE4OC40ODQgNjEuOTYxNyAxODkuNzE2IDYzLjU3NjcgMTkxLjM2TDEwNC4xNTMgMTgwLjY2OEMxMDQuMTUzIDE4MC42NjggMTAzLjU3OCAxODguMDc3IDk4LjU4NDcgMTk0LjcwNUMxMDguMDMgMTg3LjU1OSAxMDguOTQ2IDE3NS44NzYgMTA4Ljk0NiAxNzUuODc2Wk0xNDkuMDA1IDI4OC4zNDdDODEuNjU4MiAzMDYuNDg2IDQ2LjAyNzIgMjI4LjQzOCAzNS4yMzk2IDE4Ny45MjhDMzAuMjU1NiAxNjkuMjI5IDI4LjA3OTkgMTU1LjA2NyAyNy41IDE0NS45MjhDMjcuNDM3NyAxNDQuOTc5IDI3LjQ2NjUgMTQ0LjE3OSAyNy41MzM2IDE0My40NDZDMjQuMDQgMTQzLjY1NyAyMi4zNjc0IDE0NS40NzMgMjIuNzA3NyAxNTAuNzIxQzIzLjI4NzYgMTU5Ljg1NSAyNS40NjMzIDE3NC4wMTYgMzAuNDQ3MyAxOTIuNzIxQzQxLjIzMDEgMjMzLjIyNSA3Ni44NjU5IDMxMS4yNzMgMTQ0LjIxMyAyOTMuMTM0QzE1OC44NzIgMjg5LjE4NSAxNjkuODg1IDI4MS45OTIgMTc4LjE1MiAyNzIuODFDMTcwLjUzMiAyNzkuNjkyIDE2MC45OTUgMjg1LjExMiAxNDkuMDA1IDI4OC4zNDdaTTE2MS42NjEgMTI4LjExVjEzMi45MDNIMTg4LjA3N0MxODcuNTM1IDEzMS4yMDYgMTg2Ljk4OSAxMjkuNjc3IDE4Ni40NDcgMTI4LjExSDE2MS42NjFaIiBmaWxsPSIjMkQ0NTUyIi8+CjxwYXRoIGQ9Ik0xOTMuOTgxIDE2Ny41ODRDMjA1Ljg2MSAxNzAuOTU4IDIxMi4xNDQgMTc5LjI4NyAyMTUuNDY1IDE4Ni42NThMMjI4LjcxMSAxOTAuNDJDMjI4LjcxMSAxOTAuNDIgMjI2LjkwNCAxNjQuNjIzIDIwMy41NyAxNTcuOTk1QzE4MS43NDEgMTUxLjc5MyAxNjguMzA4IDE3MC4xMjQgMTY2LjY3NCAxNzIuNDk2QzE3My4wMjQgMTY3Ljk3MiAxODIuMjk3IDE2NC4yNjggMTkzLjk4MSAxNjcuNTg0Wk0yOTkuNDIyIDE4Ni43NzdDMjc3LjU3MyAxODAuNTQ3IDI2NC4xNDUgMTk4LjkxNiAyNjIuNTM1IDIwMS4yNTVDMjY4Ljg5IDE5Ni43MzYgMjc4LjE1OCAxOTMuMDMxIDI4OS44MzcgMTk2LjM2MkMzMDEuNjk4IDE5OS43NDEgMzA3Ljk3NiAyMDguMDYgMzExLjMwNyAyMTUuNDM2TDMyNC41NzIgMjE5LjIxMkMzMjQuNTcyIDIxOS4yMTIgMzIyLjczNiAxOTMuNDEgMjk5LjQyMiAxODYuNzc3Wk0yODYuMjYyIDI1NC43OTVMMTc2LjA3MiAyMjMuOTlDMTc2LjA3MiAyMjMuOTkgMTc3LjI2NSAyMzAuMDM4IDE4MS44NDIgMjM3Ljg2OUwyNzQuNjE3IDI2My44MDVDMjgyLjI1NSAyNTkuMzg2IDI4Ni4yNjIgMjU0Ljc5NSAyODYuMjYyIDI1NC43OTVaTTIwOS44NjcgMzIxLjEwMkMxMjIuNjE4IDI5Ny43MSAxMzMuMTY2IDE4Ni41NDMgMTQ3LjI4NCAxMzMuODY1QzE1My4wOTcgMTEyLjE1NiAxNTkuMDczIDk2LjAyMDMgMTY0LjAyOSA4NS4yMDRDMTYxLjA3MiA4NC41OTUzIDE1OC42MjMgODYuMTUyOSAxNTYuMjAzIDkxLjA3NDZDMTUwLjk0MSAxMDEuNzQ3IDE0NC4yMTIgMTE5LjEyNCAxMzcuNyAxNDMuNDVDMTIzLjU4NiAxOTYuMTI3IDExMy4wMzggMzA3LjI5IDIwMC4yODMgMzMwLjY4MkMyNDEuNDA2IDM0MS42OTkgMjczLjQ0MiAzMjQuOTU1IDI5Ny4zMjMgMjk4LjY1OUMyNzQuNjU1IDMxOS4xOSAyNDUuNzE0IDMzMC43MDEgMjA5Ljg2NyAzMjEuMTAyWiIgZmlsbD0iIzJENDU1MiIvPgo8cGF0aCBkPSJNMTYxLjY2MSAyNjIuMjk2VjIzOS44NjNMOTkuMzMyNCAyNTcuNTM3Qzk5LjMzMjQgMjU3LjUzNyAxMDMuOTM4IDIzMC43NzcgMTM2LjQ0NCAyMjEuNTU2QzE0Ni4zMDIgMjE4Ljc2MiAxNTQuNzEzIDIxOC43ODEgMTYxLjY2MSAyMjAuMTIzVjEyOC4xMUgxOTIuODY5QzE4OS40NzEgMTE3LjYxIDE4Ni4xODQgMTA5LjUyNiAxODMuNDIzIDEwMy45MDlDMTc4Ljg1NiA5NC42MTIgMTc0LjE3NCAxMDAuNzc1IDE2My41NDUgMTA5LjY2NUMxNTYuMDU5IDExNS45MTkgMTM3LjEzOSAxMjkuMjYxIDEwOC42NjggMTM2LjkzM0M4MC4xOTY2IDE0NC42MSA1Ny4xNzkgMTQyLjU3NCA0Ny41NzUyIDE0MC45MTFDMzMuOTYwMSAxMzguNTYyIDI2LjgzODcgMTM1LjU3MiAyNy41MDQ5IDE0NS45MjhDMjguMDg0NyAxNTUuMDYyIDMwLjI2MDUgMTY5LjIyNCAzNS4yNDQ1IDE4Ny45MjhDNDYuMDI3MiAyMjguNDMzIDgxLjY2MyAzMDYuNDgxIDE0OS4wMSAyODguMzQyQzE2Ni42MDIgMjgzLjYwMiAxNzkuMDE5IDI3NC4yMzMgMTg3LjYyNiAyNjIuMjkxSDE2MS42NjFWMjYyLjI5NlpNNjEuMDg0OCAxODguNDg0TDEwOC45NDYgMTc1Ljg3NkMxMDguOTQ2IDE3NS44NzYgMTA3LjU1MSAxOTQuMjg4IDg5LjYwODcgMTk5LjAxOEM3MS42NjE0IDIwMy43NDMgNjEuMDg0OCAxODguNDg0IDYxLjA4NDggMTg4LjQ4NFoiIGZpbGw9IiNFMjU3NEMiLz4KPHBhdGggZD0iTTM0MS43ODYgMTI5LjE3NEMzMjkuMzQ1IDEzMS4zNTUgMjk5LjQ5OCAxMzQuMDcyIDI2Mi42MTIgMTI0LjE4NUMyMjUuNzE2IDExNC4zMDQgMjAxLjIzNiA5Ny4wMjI0IDE5MS41MzcgODguODk5NEMxNzcuNzg4IDc3LjM4MzQgMTcxLjc0IDY5LjM4MDIgMTY1Ljc4OCA4MS40ODU3QzE2MC41MjYgOTIuMTYzIDE1My43OTcgMTA5LjU0IDE0Ny4yODQgMTMzLjg2NkMxMzMuMTcxIDE4Ni41NDMgMTIyLjYyMyAyOTcuNzA2IDIwOS44NjcgMzIxLjA5OEMyOTcuMDkzIDM0NC40NyAzNDMuNTMgMjQyLjkyIDM1Ny42NDQgMTkwLjIzOEMzNjQuMTU3IDE2NS45MTcgMzY3LjAxMyAxNDcuNSAzNjcuNzk5IDEzNS42MjVDMzY4LjY5NSAxMjIuMTczIDM1OS40NTUgMTI2LjA3OCAzNDEuNzg2IDEyOS4xNzRaTTE2Ni40OTcgMTcyLjc1NkMxNjYuNDk3IDE3Mi43NTYgMTgwLjI0NiAxNTEuMzcyIDIwMy41NjUgMTU4QzIyNi44OTkgMTY0LjYyOCAyMjguNzA2IDE5MC40MjUgMjI4LjcwNiAxOTAuNDI1TDE2Ni40OTcgMTcyLjc1NlpNMjIzLjQyIDI2OC43MTNDMTgyLjQwMyAyNTYuNjk4IDE3Ni4wNzcgMjIzLjk5IDE3Ni4wNzcgMjIzLjk5TDI4Ni4yNjIgMjU0Ljc5NkMyODYuMjYyIDI1NC43OTEgMjY0LjAyMSAyODAuNTc4IDIyMy40MiAyNjguNzEzWk0yNjIuMzc3IDIwMS40OTVDMjYyLjM3NyAyMDEuNDk1IDI3Ni4xMDcgMTgwLjEyNiAyOTkuNDIyIDE4Ni43NzNDMzIyLjczNiAxOTMuNDExIDMyNC41NzIgMjE5LjIwOCAzMjQuNTcyIDIxOS4yMDhMMjYyLjM3NyAyMDEuNDk1WiIgZmlsbD0iIzJFQUQzMyIvPgo8cGF0aCBkPSJNMTM5Ljg4IDI0Ni4wNEw5OS4zMzI0IDI1Ny41MzJDOTkuMzMyNCAyNTcuNTMyIDEwMy43MzcgMjMyLjQ0IDEzMy42MDcgMjIyLjQ5NkwxMTAuNjQ3IDEzNi4zM0wxMDguNjYzIDEzNi45MzNDODAuMTkxOCAxNDQuNjExIDU3LjE3NDIgMTQyLjU3NCA0Ny41NzA0IDE0MC45MTFDMzMuOTU1NCAxMzguNTYzIDI2LjgzNCAxMzUuNTcyIDI3LjUwMDEgMTQ1LjkyOUMyOC4wOCAxNTUuMDYzIDMwLjI1NTcgMTY5LjIyNCAzNS4yMzk3IDE4Ny45MjlDNDYuMDIyNSAyMjguNDMzIDgxLjY1ODMgMzA2LjQ4MSAxNDkuMDA1IDI4OC4zNDJMMTUwLjk4OSAyODcuNzE5TDEzOS44OCAyNDYuMDRaTTYxLjA4NDggMTg4LjQ4NUwxMDguOTQ2IDE3NS44NzZDMTA4Ljk0NiAxNzUuODc2IDEwNy41NTEgMTk0LjI4OCA4OS42MDg3IDE5OS4wMThDNzEuNjYxNSAyMDMuNzQzIDYxLjA4NDggMTg4LjQ4NSA2MS4wODQ4IDE4OC40ODVaIiBmaWxsPSIjRDY1MzQ4Ii8+CjxwYXRoIGQ9Ik0yMjUuMjcgMjY5LjE2M0wyMjMuNDE1IDI2OC43MTJDMTgyLjM5OCAyNTYuNjk4IDE3Ni4wNzIgMjIzLjk5IDE3Ni4wNzIgMjIzLjk5TDIzMi44OSAyMzkuODcyTDI2Mi45NzEgMTI0LjI4MUwyNjIuNjA3IDEyNC4xODVDMjI1LjcxMSAxMTQuMzA0IDIwMS4yMzIgOTcuMDIyNCAxOTEuNTMyIDg4Ljg5OTRDMTc3Ljc4MyA3Ny4zODM0IDE3MS43MzUgNjkuMzgwMiAxNjUuNzgzIDgxLjQ4NTdDMTYwLjUyNiA5Mi4xNjMgMTUzLjc5NyAxMDkuNTQgMTQ3LjI4NCAxMzMuODY2QzEzMy4xNzEgMTg2LjU0MyAxMjIuNjIzIDI5Ny43MDYgMjA5Ljg2NyAzMjEuMDk3TDIxMS42NTUgMzIxLjVMMjI1LjI3IDI2OS4xNjNaTTE2Ni40OTcgMTcyLjc1NkMxNjYuNDk3IDE3Mi43NTYgMTgwLjI0NiAxNTEuMzcyIDIwMy41NjUgMTU4QzIyNi44OTkgMTY0LjYyOCAyMjguNzA2IDE5MC40MjUgMjI4LjcwNiAxOTAuNDI1TDE2Ni40OTcgMTcyLjc1NloiIGZpbGw9IiMxRDhEMjIiLz4KPHBhdGggZD0iTTE0MS45NDYgMjQ1LjQ1MUwxMzEuMDcyIDI0OC41MzdDMTMzLjY0MSAyNjMuMDE5IDEzOC4xNjkgMjc2LjkxNyAxNDUuMjc2IDI4OS4xOTVDMTQ2LjUxMyAyODguOTIyIDE0Ny43NCAyODguNjg3IDE0OSAyODguMzQyQzE1Mi4zMDIgMjg3LjQ1MSAxNTUuMzY0IDI4Ni4zNDggMTU4LjMxMiAyODUuMTQ1QzE1MC4zNzEgMjczLjM2MSAxNDUuMTE4IDI1OS43ODkgMTQxLjk0NiAyNDUuNDUxWk0xMzcuNyAxNDMuNDUxQzEzMi4xMTIgMTY0LjMwNyAxMjcuMTEzIDE5NC4zMjYgMTI4LjQ4OSAyMjQuNDM2QzEzMC45NTIgMjIzLjM2NyAxMzMuNTU0IDIyMi4zNzEgMTM2LjQ0NCAyMjEuNTUxTDEzOC40NTcgMjIxLjEwMUMxMzYuMDAzIDE4OC45MzkgMTQxLjMwOCAxNTYuMTY1IDE0Ny4yODQgMTMzLjg2NkMxNDguNzk5IDEyOC4yMjUgMTUwLjMxOCAxMjIuOTc4IDE1MS44MzIgMTE4LjA4NUMxNDkuMzkzIDExOS42MzcgMTQ2Ljc2NyAxMjEuMjI4IDE0My43NzYgMTIyLjg2N0MxNDEuNzU5IDEyOS4wOTMgMTM5LjcyMiAxMzUuODk4IDEzNy43IDE0My40NTFaIiBmaWxsPSIjQzA0QjQxIi8+Cjwvc3ZnPg==;" vertex="1" parent="1">
                    <mxGeometry x="96.5" y="181.5" width="107" height="107" as="geometry"/>
                </mxCell>
                <mxCell id="17" value="Playwright" style="text;html=1;align=center;verticalAlign=middle;resizable=0;points=[];autosize=1;strokeColor=none;fillColor=none;fontSize=14;" vertex="1" parent="1">
                    <mxGeometry x="110" y="170" width="80" height="20" as="geometry"/>
                </mxCell>
                <mxCell id="18" value="" style="line;strokeWidth=2;html=1;fontSize=14;rotation=-45;" vertex="1" parent="1">
                    <mxGeometry x="270" y="230" width="30" height="10" as="geometry"/>
                </mxCell>
            </root>
        </mxGraphModel>
    </diagram>
</mxfile>